<?xml version="1.0" standalone="no"?>
<svg xmlns:xlink="http://www.w3.org/1999/xlink" id="wave" style="transform:rotate(180deg); transition: 0.3s" viewBox="0 0 1440 100" version="1.1" xmlns="http://www.w3.org/2000/svg"><defs><linearGradient id="sw-gradient-0" x1="0" x2="0" y1="1" y2="0"><stop stop-color="rgba(255, 232, 180, 1)" offset="0%"/><stop stop-color="rgba(255, 232, 180, 1)" offset="100%"/></linearGradient></defs><path style="transform:translate(0, 0px); opacity:1" fill="url(#sw-gradient-0)" d="M0,50L60,41.7C120,33,240,17,360,23.3C480,30,600,60,720,65C840,70,960,50,1080,38.3C1200,27,1320,23,1440,20C1560,17,1680,13,1800,23.3C1920,33,2040,57,2160,63.3C2280,70,2400,60,2520,53.3C2640,47,2760,43,2880,48.3C3000,53,3120,67,3240,60C3360,53,3480,27,3600,25C3720,23,3840,47,3960,58.3C4080,70,4200,70,4320,71.7C4440,73,4560,77,4680,73.3C4800,70,4920,60,5040,61.7C5160,63,5280,77,5400,80C5520,83,5640,77,5760,71.7C5880,67,6000,63,6120,56.7C6240,50,6360,40,6480,40C6600,40,6720,50,6840,55C6960,60,7080,60,7200,61.7C7320,63,7440,67,7560,68.3C7680,70,7800,70,7920,66.7C8040,63,8160,57,8280,56.7C8400,57,8520,63,8580,66.7L8640,70L8640,100L8580,100C8520,100,8400,100,8280,100C8160,100,8040,100,7920,100C7800,100,7680,100,7560,100C7440,100,7320,100,7200,100C7080,100,6960,100,6840,100C6720,100,6600,100,6480,100C6360,100,6240,100,6120,100C6000,100,5880,100,5760,100C5640,100,5520,100,5400,100C5280,100,5160,100,5040,100C4920,100,4800,100,4680,100C4560,100,4440,100,4320,100C4200,100,4080,100,3960,100C3840,100,3720,100,3600,100C3480,100,3360,100,3240,100C3120,100,3000,100,2880,100C2760,100,2640,100,2520,100C2400,100,2280,100,2160,100C2040,100,1920,100,1800,100C1680,100,1560,100,1440,100C1320,100,1200,100,1080,100C960,100,840,100,720,100C600,100,480,100,360,100C240,100,120,100,60,100L0,100Z"/></svg>